<svg width="23" height="17" viewBox="0 0 23 17" fill="none" xmlns="http://www.w3.org/2000/svg">
<path d="M20.4266 8.41486H20.04V3.93469C20.0378 2.01758 18.4894 0.463996 16.5787 0.461792H6.04438C4.13367 0.463996 2.58526 2.01758 2.58306 3.93469V8.41486H2.19643C1.11656 8.41612 0.24115 9.2943 0.240051 10.3778V13.0336C0.24115 14.1171 1.11656 14.9951 2.19643 14.9965H3.02037V15.5541C3.021 16.0847 3.44969 16.5147 3.97864 16.5153H5.49252C6.02132 16.5147 6.45016 16.0847 6.45078 15.5541V14.9965H16.1724V15.5541C16.173 16.0847 16.6016 16.5147 17.1305 16.5153H18.6449C19.1738 16.5147 19.6025 16.0847 19.603 15.5541V14.9965H20.4271C21.507 14.9951 22.3824 14.1171 22.3835 13.0336V10.3778C22.3824 9.29414 21.5068 8.41596 20.4266 8.41486ZM3.48593 3.93469C3.4875 2.51776 4.63217 1.36957 6.04438 1.36768H16.5787C17.9909 1.36957 19.1354 2.51776 19.137 3.93469V8.41486H18.308V6.84537C18.3072 6.21153 17.7954 5.69798 17.1636 5.69719H12.833C12.2015 5.69798 11.6894 6.21169 11.6888 6.84537V8.41486H10.9342V6.84537C10.9334 6.21169 10.4216 5.69798 9.78987 5.69719H5.45957C4.82784 5.69798 4.31584 6.21153 4.31506 6.84537V8.41486H3.48593V3.93469ZM17.405 8.41486H12.5918V6.84537C12.5918 6.71171 12.6998 6.60339 12.833 6.60324H17.1636C17.2969 6.60339 17.4048 6.71171 17.405 6.84537V8.41486ZM10.0314 8.41486H5.21793V6.84537C5.21824 6.71171 5.3262 6.60339 5.45957 6.60324H9.78987C9.92325 6.60339 10.0312 6.71171 10.0314 6.84537V8.41486ZM2.19643 9.32091H20.4266C21.0081 9.3217 21.4793 9.79448 21.48 10.3778V12.3642H1.14292V10.3778C1.14355 9.79448 1.61491 9.3217 2.19643 9.32091ZM5.54776 15.5538C5.54776 15.5844 5.52328 15.6091 5.49284 15.6091H3.97848C3.94804 15.6091 3.92356 15.5844 3.92356 15.5538V14.9965H5.54776V15.5538ZM18.6996 15.5538C18.6996 15.5844 18.675 15.6091 18.6446 15.6091H17.1305C17.1001 15.6091 17.0756 15.5844 17.0756 15.5538V14.9965H18.6998L18.6996 15.5538ZM20.4266 14.0906H2.19643C1.70592 14.0895 1.28069 13.7496 1.1707 13.27H21.4524C21.3422 13.7496 20.9173 14.0895 20.4266 14.0906Z" fill="#757575" stroke="#757575" stroke-width="0.2"/>
</svg>
