<svg width="23" height="24" viewBox="0 0 23 24" fill="none" xmlns="http://www.w3.org/2000/svg">
<g opacity="0.3" clip-path="url(#clip0)">
<path fill-rule="evenodd" clip-rule="evenodd" d="M12.9066 20.9429C17.6008 20.9891 21.4436 17.2211 21.4897 12.5269C21.5358 7.83269 17.7678 3.98989 13.0736 3.94376C8.37945 3.89762 4.53665 7.66562 4.49051 12.3598C4.44438 17.054 8.21237 20.8968 12.9066 20.9429ZM22.9896 12.5416C22.9353 18.0642 18.4144 22.4971 12.8918 22.4429C7.36924 22.3886 2.93631 17.8676 2.99059 12.3451C3.04487 6.82249 7.5658 2.38955 13.0884 2.44383C18.611 2.49811 23.0439 7.01905 22.9896 12.5416Z" fill="#3E3C50"/>
<path fill-rule="evenodd" clip-rule="evenodd" d="M15.9556 9.53556L11.882 11.0177C11.7463 11.0671 11.6385 11.1727 11.5865 11.3074L10.0246 15.3512L14.0983 13.869C14.234 13.8197 14.3417 13.714 14.3937 13.5793L15.9556 9.53556ZM16.4765 7.74987L11.3691 9.60808C10.8263 9.80558 10.3954 10.2281 10.1873 10.7669L8.22902 15.8368C7.91967 16.6377 8.69695 17.4304 9.50376 17.1368L14.6111 15.2786C15.1539 15.0811 15.5849 14.6586 15.793 14.1198L17.7512 9.04991C18.0606 8.24902 17.2833 7.45632 16.4765 7.74987Z" fill="#3E3C50"/>
</g>
<defs>
<clipPath id="clip0">
<rect width="21.7146" height="22.6619" fill="white" transform="translate(1.10864 0.325989) rotate(0.563112)"/>
</clipPath>
</defs>
</svg>
