<svg width="26" height="25" viewBox="0 0 26 25" fill="none" xmlns="http://www.w3.org/2000/svg">
<path fill-rule="evenodd" clip-rule="evenodd" d="M13.0122 21.3038C17.7064 21.35 21.5491 17.582 21.5953 12.8878C21.6414 8.1936 17.8734 4.3508 13.1792 4.30466C8.48504 4.25853 4.64224 8.02652 4.59611 12.7207C4.54997 17.4149 8.31796 21.2577 13.0122 21.3038ZM23.0952 12.9025C23.0409 18.4251 18.52 22.858 12.9974 22.8038C7.47483 22.7495 3.0419 18.2286 3.09618 12.706C3.15046 7.18339 7.67139 2.75046 13.194 2.80474C18.7166 2.85901 23.1495 7.37995 23.0952 12.9025Z" fill="#9BAAD3"/>
<path fill-rule="evenodd" clip-rule="evenodd" d="M16.0612 9.89646L11.9876 11.3786C11.8519 11.428 11.7441 11.5336 11.6921 11.6683L10.1302 15.712L14.2039 14.2299C14.3396 14.1805 14.4473 14.0749 14.4993 13.9402L16.0612 9.89646ZM16.5821 8.11076L11.4747 9.96898C10.9319 10.1665 10.501 10.589 10.2929 11.1278L8.33461 16.1977C8.02527 16.9986 8.80254 17.7913 9.60935 17.4977L14.7167 15.6395C15.2595 15.442 15.6905 15.0195 15.8986 14.4807L17.8568 9.4108C18.1662 8.60992 17.3889 7.81722 16.5821 8.11076Z" fill="#9BAAD3"/>
</svg>
