<svg width="10" height="11" viewBox="0 0 10 11" fill="none" xmlns="http://www.w3.org/2000/svg">
<path d="M9.92853 4.4906C9.91374 4.40173 9.86712 4.32134 9.79742 4.26453C9.72772 4.20772 9.63975 4.1784 9.55003 4.18207C9.46084 4.18422 9.37532 4.21817 9.30881 4.27783C9.24229 4.33749 9.19912 4.41896 9.18703 4.50766C9.15468 4.74018 9.0982 4.96868 9.01853 5.18943C8.74986 5.98567 8.25094 6.68359 7.58538 7.19421C6.91983 7.70483 6.11779 8.00501 5.28152 8.05648C5.18852 8.06551 5.09552 8.06952 4.99852 8.06952C4.70009 8.06972 4.41396 8.18886 4.20307 8.40074C3.99219 8.61261 3.87382 8.89986 3.87402 9.19929C3.87422 9.49872 3.99297 9.78581 4.20413 9.9974C4.4153 10.209 4.70159 10.3277 5.00002 10.3275C6.18548 10.3333 7.33387 9.91337 8.23773 9.14376C9.14159 8.37415 9.74131 7.30556 9.92853 6.13107C10.0236 5.5884 10.0236 5.03326 9.92853 4.4906Z" fill="#757575"/>
<path d="M6.12494 1.42286C6.12454 1.12361 6.00589 0.836738 5.795 0.625141C5.5841 0.413543 5.29818 0.294492 4.99994 0.294094C3.81449 0.288387 2.66609 0.708269 1.76223 1.47788C0.858371 2.24749 0.258655 3.31608 0.0714333 4.49058C-0.0236483 5.03324 -0.0236483 5.58839 0.0714333 6.13105C0.087125 6.21763 0.132608 6.29594 0.199951 6.35232C0.267294 6.40871 0.352224 6.43959 0.439934 6.43958H0.449934C0.539126 6.43742 0.62464 6.40347 0.691156 6.34381C0.757672 6.28415 0.800842 6.20268 0.812934 6.11399C0.845249 5.88162 0.901724 5.65329 0.981434 5.43272C1.26774 4.59174 1.80917 3.86173 2.52982 3.34505C3.25047 2.82838 4.11421 2.55093 4.99994 2.55162C5.29818 2.55122 5.5841 2.43217 5.795 2.22057C6.00589 2.00897 6.12454 1.7221 6.12494 1.42286Z" fill="#757575"/>
</svg>
