<svg width="91" height="91" viewBox="0 0 91 91" fill="none" xmlns="http://www.w3.org/2000/svg">
<g filter="url(#filter0_d)">
<rect x="20.5244" y="10.5705" width="50" height="50" rx="10" transform="rotate(0.563112 20.5244 10.5705)" fill="#FF6647"/>
</g>
<path fill-rule="evenodd" clip-rule="evenodd" d="M38.1795 45.7457C36.5227 45.7294 35.1928 44.3731 35.2091 42.7164L35.2845 35.0528C35.2928 34.2024 35.6617 33.3955 36.2994 32.8328L43.361 26.6019C44.512 25.5863 46.2438 25.6034 47.3746 26.6413L54.3123 33.0098C54.9389 33.585 55.2918 34.399 55.2835 35.2494L55.2082 42.9129C55.1919 44.5697 53.8356 45.8996 52.1788 45.8833L38.1795 45.7457ZM53.7836 35.2346L53.7082 42.8982C53.7001 43.7266 53.022 44.3915 52.1936 44.3834L49.1937 44.3539L49.2478 38.8541C49.2641 37.1974 47.9342 35.8411 46.2774 35.8248L44.2775 35.8051C42.6207 35.7889 41.2644 37.1187 41.2482 38.7755L41.1941 44.2753L38.1942 44.2458C37.3659 44.2376 36.7009 43.5595 36.7091 42.7311L36.7844 35.0676C36.7886 34.6423 36.973 34.2389 37.2919 33.9575L44.3534 27.7267C44.9289 27.2189 45.7949 27.2274 46.3602 27.7464L53.298 34.1149C53.6112 34.4024 53.7877 34.8094 53.7836 35.2346ZM42.694 44.29L42.7481 38.7903C42.7562 37.9619 43.4344 37.2969 44.2628 37.3051L46.2627 37.3247C47.091 37.3329 47.756 38.011 47.7478 38.8394L47.6938 44.3391L42.694 44.29Z" fill="white"/>
<path fill-rule="evenodd" clip-rule="evenodd" d="M48.107 10.8416L60.5224 10.9636C66.045 11.0179 70.478 15.5388 70.4237 21.0614L70.3144 32.1791C68.5793 32.7342 66.7273 33.0257 64.806 33.0068C55.1415 32.9118 47.3839 25.0001 47.4788 15.3356C47.4941 13.7799 47.712 12.2737 48.107 10.8416Z" fill="#FF8D76"/>
<defs>
<filter id="filter0_d" x="0.130859" y="0.668274" width="90.2934" height="90.2934" filterUnits="userSpaceOnUse" color-interpolation-filters="sRGB">
<feFlood flood-opacity="0" result="BackgroundImageFix"/>
<feColorMatrix in="SourceAlpha" type="matrix" values="0 0 0 0 0 0 0 0 0 0 0 0 0 0 0 0 0 0 127 0"/>
<feOffset dy="10"/>
<feGaussianBlur stdDeviation="10"/>
<feColorMatrix type="matrix" values="0 0 0 0 0.345098 0 0 0 0 0.360784 0 0 0 0 0.898039 0 0 0 0.25 0"/>
<feBlend mode="normal" in2="BackgroundImageFix" result="effect1_dropShadow"/>
<feBlend mode="normal" in="SourceGraphic" in2="effect1_dropShadow" result="shape"/>
</filter>
</defs>
</svg>
