<svg width="24" height="24" viewBox="0 0 24 24" fill="none" xmlns="http://www.w3.org/2000/svg">
<g opacity="0.3">
<path d="M18.0524 14.7625C18.138 14.8958 18.2619 14.9999 18.4047 15.0684C19.4963 15.5925 20.2499 16.7082 20.2499 18V20C20.2499 20.4142 20.5857 20.75 20.9999 20.75C21.4142 20.75 21.7499 20.4142 21.7499 20V18C21.7499 15.3766 19.6233 13.25 16.9999 13.25C16.8913 13.25 16.8423 13.3902 16.9245 13.4614C17.3597 13.838 17.7402 14.2763 18.0524 14.7625Z" fill="black"/>
<path fill-rule="evenodd" clip-rule="evenodd" d="M7 14.75C5.20507 14.75 3.75 16.2051 3.75 18V20C3.75 20.4142 3.41421 20.75 3 20.75C2.58579 20.75 2.25 20.4142 2.25 20V18C2.25 15.3766 4.37665 13.25 7 13.25H13C15.6234 13.25 17.75 15.3766 17.75 18V20C17.75 20.4142 17.4142 20.75 17 20.75C16.5858 20.75 16.25 20.4142 16.25 20V18C16.25 16.2051 14.7949 14.75 13 14.75H7Z" fill="black"/>
<path d="M14.8704 9.55748C14.9594 9.3884 15.1008 9.25336 15.2655 9.15651C16.0042 8.72208 16.5 7.91894 16.5 7C16.5 6.08106 16.0042 5.27792 15.2655 4.84349C15.1008 4.74664 14.9594 4.6116 14.8704 4.44252C14.6219 3.9701 14.3066 3.53827 13.9371 3.15954C13.8794 3.10037 13.9173 3 14 3C16.2091 3 18 4.79086 18 7C18 9.20914 16.2091 11 14 11C13.9173 11 13.8794 10.8996 13.9371 10.8405C14.3066 10.4617 14.6219 10.0299 14.8704 9.55748Z" fill="black"/>
<path fill-rule="evenodd" clip-rule="evenodd" d="M10 9.5C11.3807 9.5 12.5 8.38071 12.5 7C12.5 5.61929 11.3807 4.5 10 4.5C8.61929 4.5 7.5 5.61929 7.5 7C7.5 8.38071 8.61929 9.5 10 9.5ZM10 11C12.2091 11 14 9.20914 14 7C14 4.79086 12.2091 3 10 3C7.79086 3 6 4.79086 6 7C6 9.20914 7.79086 11 10 11Z" fill="black"/>
</g>
</svg>
