<svg width="16" height="17" viewBox="0 0 16 17" fill="none" xmlns="http://www.w3.org/2000/svg">
<path d="M14.2401 0.863257H2.24011C1.81566 0.863257 1.40866 1.03244 1.10862 1.33347C0.808602 1.6345 0.640112 2.0427 0.640112 2.46827V14.5084C0.640112 14.934 0.808602 15.3422 1.10862 15.6432C1.40866 15.9442 1.81566 16.1134 2.24011 16.1134H14.2401C14.6646 16.1134 15.0716 15.9442 15.3716 15.6432C15.6716 15.3422 15.8401 14.934 15.8401 14.5084V2.46827C15.8401 2.0427 15.6716 1.6345 15.3716 1.33347C15.0716 1.03244 14.6646 0.863257 14.2401 0.863257ZM2.24011 14.7847C2.16729 14.7847 2.09737 14.7556 2.04578 14.7039C1.99417 14.6521 1.96511 14.5818 1.96511 14.5084V7.83583H8.61511C8.68794 7.83583 8.75785 7.86486 8.80945 7.91663C8.86106 7.96841 8.89011 8.03871 8.89011 8.11209V14.7847H2.24011ZM14.5151 14.5084C14.5151 14.5818 14.4861 14.6521 14.4344 14.7039C14.3829 14.7556 14.3129 14.7847 14.2401 14.7847H10.2151V8.11209C10.2151 7.68652 10.0466 7.27831 9.7466 6.97729C9.44657 6.67625 9.03957 6.50707 8.61511 6.50707H1.96511V2.46827C1.96511 2.3949 1.99417 2.3246 2.04578 2.27281C2.09737 2.22104 2.16729 2.19202 2.24011 2.19202H14.2401C14.3129 2.19202 14.3829 2.22104 14.4344 2.27281C14.4861 2.3246 14.5151 2.3949 14.5151 2.46827V14.5084Z" fill="#757575" stroke="#757575" stroke-width="0.2"/>
</svg>
