<svg width="12" height="15" viewBox="0 0 12 15" fill="none" xmlns="http://www.w3.org/2000/svg">
<path d="M5.93098 0.0996094C3.02678 0.0996094 0.672363 2.51611 0.672363 5.4978C0.672363 7.90771 4.10927 12.3013 5.42606 13.8959C5.48782 13.9718 5.56505 14.0328 5.65229 14.0747C5.73954 14.1166 5.83467 14.1383 5.93098 14.1383C6.02729 14.1383 6.12243 14.1166 6.20967 14.0747C6.29692 14.0328 6.37415 13.9718 6.43591 13.8959C7.7527 12.3013 11.1896 7.90844 11.1896 5.4978C11.1896 2.51611 8.83519 0.0996094 5.93098 0.0996094ZM5.93098 7.11879C4.98665 7.11879 4.22179 6.33279 4.22179 5.36399C4.22179 4.39447 4.98737 3.6092 5.93098 3.6092C6.8746 3.6092 7.64018 4.39447 7.64018 5.36399C7.64018 6.33279 6.8746 7.11879 5.93098 7.11879Z" fill="#FF6647"/>
</svg>
