<svg width="16" height="20" viewBox="0 0 16 20" fill="none" xmlns="http://www.w3.org/2000/svg">
<path d="M8 20C4 20 0 17.3 0 12C0 10.3 0.6 8.00002 1.2 6.30002C1.32163 5.95539 1.66682 5.70002 2 5.70002C2.43582 5.70002 2.74889 5.9978 2.9 6.30002C3.1 6.90002 3.3 7.50002 3.5 8.00002C3.8595 8.95867 4.3 9.50002 5 10C4.58401 8.64352 4.58925 7.36919 5 6.00002C5.9 3.00002 7.5 1.50002 8.7 0.700015L8.9 0.600015C9.1 0.500015 9.4 0.600015 9.6 0.700015C9.8 0.800015 10 1.10002 10 1.50002C10 2.5 10.5762 4.57622 12 6C13.8485 7.60002 16 9.60002 16 13C16 16.9 12.4 20 8 20ZM2.1 8.50002C1.7 9.90001 1.5 11.1 1.5 12C1.5 16.5 4.9 18.5 8 18.5C11.6 18.5 14.5 16 14.5 13C14.5 9 11 8 9.5 5C8.99708 4.14944 8.92371 3.54399 8.7 2.50002C7.9 3.30002 7 4.5 6.5 6.30002C6.1116 7.46522 6.18948 8.60002 6.4 9.50002C6.6 10.1 6.4 10.7 6 11.1C5.5 11.5 4.9 11.6 4.3 11.3C3 10.5 2.5 9.5 2.1 8.50002Z" fill="black"/>
</svg>
