<svg width="12" height="11" viewBox="0 0 12 11" fill="none" xmlns="http://www.w3.org/2000/svg">
<path d="M10.8944 2.11628C8.06956 0.429861 5.23595 0.29742 2.69715 1.70571C1.24515 2.50478 0.224355 3.82919 0.0351549 5.18893C-0.0265004 5.60864 -0.00210697 6.03656 0.106841 6.44648C0.215789 6.8564 0.406998 7.23969 0.668755 7.57287C1.45954 6.09838 2.66538 4.89004 4.13595 4.09849C4.16117 4.08236 4.1894 4.07155 4.21891 4.06673C4.24843 4.06191 4.27862 4.06318 4.30763 4.07046C4.33664 4.07774 4.36387 4.09088 4.38765 4.10907C4.41143 4.12726 4.43127 4.15013 4.44594 4.17627C4.46062 4.20242 4.46983 4.23129 4.47301 4.26113C4.47619 4.29096 4.47327 4.32113 4.46444 4.3498C4.4556 4.37847 4.44104 4.40503 4.42163 4.42785C4.40222 4.45068 4.37838 4.4693 4.35155 4.48257C1.47835 6.08953 0.541155 8.50438 0.00875494 10.6632C0.00843039 10.711 0.0239032 10.7576 0.0527549 10.7956C0.136355 10.9016 0.281555 10.8795 0.549955 10.8839H1.02515C1.50475 10.8839 1.50915 10.853 1.53995 10.6985C1.67304 10.033 1.87965 9.38443 2.15595 8.76485C4.29435 9.7096 7.22915 8.32338 8.45675 6.84003C8.94615 6.20499 9.31186 5.48309 9.53475 4.71214C9.83395 3.891 10.12 3.09635 10.912 2.50478C10.9419 2.48459 10.9664 2.45731 10.9834 2.42536C11.0004 2.39342 11.0092 2.35777 11.0092 2.32157C11.0092 2.28537 11.0004 2.24972 10.9834 2.21777C10.9664 2.18582 10.9419 2.15855 10.912 2.13836L10.8944 2.11628Z" fill="#757575"/>
</svg>
