<svg width="26" height="25" viewBox="0 0 26 25" fill="none" xmlns="http://www.w3.org/2000/svg">
<path fill-rule="evenodd" clip-rule="evenodd" d="M13.0195 11.299C14.9524 11.318 16.5347 9.76644 16.5537 7.83354C16.5727 5.90064 15.0212 4.31831 13.0883 4.29931C11.1554 4.28031 9.57306 5.83184 9.55406 7.76474C9.53506 9.69765 11.0866 11.28 13.0195 11.299ZM13.0048 12.7989C15.766 12.826 18.0265 10.6096 18.0536 7.84828C18.0808 5.08699 15.8643 2.82652 13.103 2.79938C10.3417 2.77224 8.08127 4.98871 8.05413 7.75C8.02699 10.5113 10.2435 12.7718 13.0048 12.7989Z" fill="#9BAAD3"/>
<path fill-rule="evenodd" clip-rule="evenodd" d="M9.96801 16.5192C7.62092 16.4962 5.69952 18.3802 5.67645 20.7273L5.66662 21.7272C5.66255 22.1414 5.32348 22.4739 4.90929 22.4698C4.49509 22.4657 4.16262 22.1267 4.16669 21.7125L4.17652 20.7125C4.20773 17.537 6.80727 14.9881 9.98275 15.0193L15.9825 15.0783C19.1579 15.1095 21.7069 17.709 21.6757 20.8845L21.6658 21.8845C21.6618 22.2986 21.3227 22.6311 20.9085 22.627C20.4943 22.623 20.1618 22.2839 20.1659 21.8697L20.1757 20.8698C20.1988 18.5227 18.3148 16.6013 15.9677 16.5782L9.96801 16.5192Z" fill="#9BAAD3"/>
</svg>
