<svg width="25" height="25" viewBox="0 0 25 25" fill="none" xmlns="http://www.w3.org/2000/svg">
<path d="M16.1439 5.49133C16.3425 5.11084 16.8142 4.96061 17.1761 5.19128C18.6522 6.13203 19.8272 7.48649 20.5489 9.09348C21.3772 10.9376 21.5605 13.0068 21.0693 14.9678C20.578 16.9288 19.4409 18.6673 17.8411 19.9032C16.2413 21.1391 14.272 21.8003 12.2506 21.7805C10.2291 21.7606 8.27317 21.0608 6.69798 19.7937C5.12278 18.5266 4.02004 16.7661 3.56745 14.7958C3.11487 12.8256 3.33879 10.7603 4.20314 8.93285C4.95635 7.34035 6.15766 6.00924 7.65198 5.09769C8.01839 4.87417 8.48699 5.03364 8.67807 5.41796C8.86916 5.80228 8.7098 6.26539 8.34748 6.49547C7.16408 7.24697 6.21205 8.32064 5.60818 9.5974C4.8931 11.1093 4.70785 12.8179 5.08228 14.4479C5.4567 16.0779 6.369 17.5343 7.67217 18.5826C8.97533 19.6308 10.5935 20.2098 12.2658 20.2263C13.9382 20.2427 15.5674 19.6956 16.8909 18.6732C18.2144 17.6507 19.1552 16.2125 19.5616 14.5901C19.968 12.9678 19.8163 11.2559 19.1311 9.73029C18.5524 8.44191 17.6217 7.34974 16.4533 6.57513C16.0956 6.33797 15.9453 5.87182 16.1439 5.49133Z" fill="#9BAAD3"/>
<path fill-rule="evenodd" clip-rule="evenodd" d="M12.4348 3.03136C12.849 3.03543 13.1814 3.3745 13.1774 3.78869L13.1282 8.78845C13.1242 9.20264 12.7851 9.53511 12.3709 9.53104C11.9567 9.52697 11.6242 9.1879 11.6283 8.77371L11.6774 3.77395C11.6815 3.35976 12.0206 3.02729 12.4348 3.03136Z" fill="#9BAAD3"/>
</svg>
