<svg width="22" height="17" viewBox="0 0 22 17" fill="none" xmlns="http://www.w3.org/2000/svg">
<path d="M21.16 15.8731H20.2384V12.3414C20.2384 12.2562 20.2047 12.1746 20.1447 12.1143C20.0847 12.0541 20.0033 12.0203 19.9184 12.0203H17.7552V4.6357C17.7552 4.55055 17.7215 4.46888 17.6615 4.40867C17.6015 4.34846 17.5201 4.31463 17.4352 4.31463H15.2752V0.782862C15.2752 0.697709 15.2415 0.616043 15.1815 0.555831C15.1215 0.495619 15.0401 0.461792 14.9552 0.461792H7.5152C7.43033 0.461792 7.34894 0.495619 7.28893 0.555831C7.22891 0.616043 7.1952 0.697709 7.1952 0.782862V4.31463H5.0352C4.95033 4.31463 4.86894 4.34846 4.80893 4.40867C4.74891 4.46888 4.7152 4.55055 4.7152 4.6357V12.0203H2.552C2.46713 12.0203 2.38574 12.0541 2.32573 12.1143C2.26571 12.1746 2.232 12.2562 2.232 12.3414V15.8731H1.32C1.23513 15.8731 1.15374 15.907 1.09373 15.9672C1.03371 16.0274 1 16.1091 1 16.1942C1 16.2794 1.03371 16.361 1.09373 16.4213C1.15374 16.4815 1.23513 16.5153 1.32 16.5153H21.16C21.2449 16.5153 21.3263 16.4815 21.3863 16.4213C21.4463 16.361 21.48 16.2794 21.48 16.1942C21.48 16.1091 21.4463 16.0274 21.3863 15.9672C21.3263 15.907 21.2449 15.8731 21.16 15.8731ZM17.1344 4.95677V12.0203H16.8144V5.27784H15.5856V12.0203H15.2656V4.95677H17.1344ZM16.5136 7.8464V9.45175H15.896V7.8464H16.5136ZM15.896 7.20426V5.59891H16.5136V7.20426H15.896ZM16.5136 10.0939V11.6992H15.896V10.0939H16.5136ZM2.8624 12.6625H4.7248V15.8731H2.8624V12.6625ZM5.3456 4.95677H7.2048V15.8731H5.3456V4.95677ZM7.8256 1.10393H9.0672V9.77282C9.05537 9.82016 9.05446 9.86959 9.06453 9.91734C9.0746 9.96509 9.09539 10.0099 9.12532 10.0484C9.15524 10.0869 9.19352 10.118 9.23723 10.1394C9.28095 10.1608 9.32895 10.1719 9.3776 10.1719C9.42625 10.1719 9.47425 10.1608 9.51797 10.1394C9.56168 10.118 9.59996 10.0869 9.62988 10.0484C9.65981 10.0099 9.6806 9.96509 9.69067 9.91734C9.70074 9.86959 9.69983 9.82016 9.688 9.77282V1.10393H14.6544V12.0203H10.3088C10.2239 12.0203 10.1425 12.0541 10.0825 12.1143C10.0225 12.1746 9.9888 12.2562 9.9888 12.3414V15.8731H7.8256V1.10393ZM10.6192 12.6625H19.6176V15.8731H10.6192V12.6625Z" fill="#757575" stroke="#757575" stroke-width="0.2"/>
<path d="M5.65576 5.27765V12.0201H6.89416V5.27765H5.65576ZM6.58376 11.699H5.96616V10.0937H6.58376V11.699ZM6.58376 9.45155H5.96616V7.84621H6.58376V9.45155ZM6.58376 7.20407H5.96616V5.59872H6.58376V7.20407Z" fill="#757575" stroke="#757575" stroke-width="0.2"/>
</svg>
