<svg width="26" height="25" viewBox="0 0 26 25" fill="none" xmlns="http://www.w3.org/2000/svg">
<path fill-rule="evenodd" clip-rule="evenodd" d="M12.8893 15.2934C14.2699 15.307 15.4002 14.1987 15.4137 12.8181C15.4273 11.4375 14.3191 10.3072 12.9384 10.2936C11.5578 10.2801 10.4276 11.3883 10.414 12.769C10.4004 14.1496 11.5086 15.2798 12.8893 15.2934ZM16.9137 12.8328C16.892 15.0419 15.0836 16.815 12.8746 16.7933C10.6655 16.7716 8.89235 14.9632 8.91406 12.7542C8.93577 10.5452 10.7441 8.77201 12.9532 8.79372C15.1622 8.81543 16.9354 10.6238 16.9137 12.8328Z" fill="#9BAAD3"/>
<path fill-rule="evenodd" clip-rule="evenodd" d="M11.9086 3.62511L11.5097 4.7839C11.1733 5.761 10.4494 6.44838 9.69415 6.85924C9.62975 6.89427 9.56598 6.93033 9.50284 6.96739C8.75986 7.40354 7.79589 7.66867 6.78436 7.4513L5.58506 7.19357C5.37465 7.14836 5.15891 7.24286 5.04947 7.42817L4.41795 8.49759C4.30852 8.6829 4.32994 8.91745 4.47114 9.07987L5.2771 10.007C5.95353 10.7851 6.18898 11.7542 6.16686 12.6154C6.16495 12.6899 6.16421 12.7645 6.16466 12.839C6.16984 13.7005 5.91539 14.6648 5.2238 15.4294L4.39978 16.3405C4.25542 16.5001 4.22938 16.7342 4.33515 16.9216L4.94554 18.0032C5.05131 18.1907 5.26515 18.2894 5.47641 18.2483L6.68046 18.0142C7.69608 17.8168 8.65466 18.1008 9.38894 18.5515C9.45135 18.5898 9.51442 18.6271 9.57813 18.6634C10.3252 19.089 11.0354 19.7905 11.3525 20.774L11.7286 21.9405C11.7947 22.1453 11.9844 22.2849 12.1996 22.287L13.4415 22.2992C13.6567 22.3013 13.8491 22.1655 13.9192 21.962L14.3181 20.8032C14.6545 19.8261 15.3784 19.1387 16.1336 18.7278C16.1981 18.6928 16.2619 18.6567 16.325 18.6197C17.068 18.1835 18.032 17.9184 19.0435 18.1357L20.2427 18.3934C20.4531 18.4387 20.6688 18.3442 20.7783 18.1588L21.4098 17.0894C21.5192 16.9041 21.4978 16.6696 21.3566 16.5071L20.5507 15.5801C19.8743 14.802 19.6388 13.8329 19.6609 12.9717C19.6629 12.8972 19.6636 12.8226 19.6631 12.748C19.6579 11.8865 19.9124 10.9222 20.604 10.1575L21.428 9.24653C21.5723 9.08692 21.5984 8.85284 21.4926 8.66541L20.8822 7.58378C20.7764 7.39635 20.5626 7.29763 20.3513 7.33871L19.1472 7.5728C18.1316 7.77025 17.1731 7.48622 16.4388 7.03555C16.3764 6.99726 16.3134 6.95996 16.2497 6.92367C15.5026 6.49805 14.7924 5.79657 14.4753 4.81305L14.0992 3.64663C14.0331 3.4418 13.8434 3.30222 13.6282 3.3001L12.3863 3.2879C12.1711 3.28578 11.9787 3.42161 11.9086 3.62511ZM10.0914 4.2956C9.90377 4.84051 9.48359 5.26619 8.97735 5.54159C8.89861 5.58442 8.82064 5.62851 8.74347 5.67381C8.24588 5.96591 7.66362 6.106 7.09951 5.98478L5.90021 5.72705C5.05856 5.54619 4.1956 5.92418 3.75787 6.66544L3.12635 7.73486C2.68861 8.47612 2.77431 9.41432 3.33911 10.064L4.14507 10.9911C4.52273 11.4255 4.68213 12.0015 4.66735 12.5769C4.66504 12.6672 4.66415 12.7576 4.66469 12.848C4.66815 13.4236 4.49746 13.9963 4.11133 14.4232L3.28731 15.3343C2.70985 15.9727 2.60573 16.9091 3.02881 17.6588L3.63919 18.7404C4.06227 19.4902 4.91763 19.885 5.76267 19.7207L6.96672 19.4867C7.53312 19.3765 8.11252 19.5281 8.60427 19.8299C8.68056 19.8767 8.75766 19.9223 8.83557 19.9667C9.3363 20.252 9.74803 20.6859 9.9249 21.2344L10.301 22.4008C10.5652 23.2201 11.324 23.7784 12.1848 23.7869L13.4267 23.7991C14.2876 23.8076 15.0572 23.2643 15.3375 22.4503L15.7364 21.2915C15.924 20.7466 16.3442 20.3209 16.8504 20.0455C16.9292 20.0026 17.0072 19.9586 17.0844 19.9132C17.582 19.6211 18.1642 19.481 18.7284 19.6023L19.9275 19.86C20.7692 20.0408 21.6321 19.6628 22.0699 18.9216L22.7014 17.8522C23.1391 17.1109 23.0534 16.1727 22.4886 15.523L21.6827 14.596C21.3051 14.1616 21.1457 13.5856 21.1604 13.0102C21.1628 12.9198 21.1637 12.8294 21.1631 12.739C21.1596 12.1634 21.3303 11.5906 21.7165 11.1637L22.5404 10.2527C23.1179 9.61427 23.222 8.67793 22.7989 7.92821L22.1886 6.84659C21.7655 6.09687 20.9101 5.70199 20.0651 5.86628L18.861 6.10037C18.2946 6.21048 17.7152 6.05897 17.2235 5.75715C17.1472 5.71034 17.0701 5.66474 16.9922 5.62036C16.4915 5.33507 16.0798 4.90121 15.9029 4.35272L15.5268 3.1863C15.2626 2.36698 14.5038 1.80864 13.643 1.80018L12.4011 1.78797C11.5402 1.77951 10.7706 2.32283 10.4903 3.1368L10.0914 4.2956Z" fill="#9BAAD3"/>
</svg>
