<svg width="24" height="24" viewBox="0 0 24 24" fill="none" xmlns="http://www.w3.org/2000/svg">
<path fill-rule="evenodd" clip-rule="evenodd" d="M6.32501 17.75H4C3.58579 17.75 3.25 17.4142 3.25 17C3.25 16.5858 3.58579 16.25 4 16.25H6.32501C6.67247 14.5383 8.18578 13.25 10 13.25C11.8142 13.25 13.3275 14.5383 13.675 16.25H20C20.4142 16.25 20.75 16.5858 20.75 17C20.75 17.4142 20.4142 17.75 20 17.75H13.675C13.3275 19.4617 11.8142 20.75 10 20.75C8.18578 20.75 6.67247 19.4617 6.32501 17.75ZM7.75 17C7.75 15.7574 8.75736 14.75 10 14.75C11.2426 14.75 12.25 15.7574 12.25 17C12.25 18.2426 11.2426 19.25 10 19.25C8.75736 19.25 7.75 18.2426 7.75 17Z" fill="white"/>
<path fill-rule="evenodd" clip-rule="evenodd" d="M10.325 7.75H4C3.58579 7.75 3.25 7.41421 3.25 7C3.25 6.58579 3.58579 6.25 4 6.25H10.325C10.6725 4.53832 12.1858 3.25 14 3.25C15.8142 3.25 17.3275 4.53832 17.675 6.25H20C20.4142 6.25 20.75 6.58579 20.75 7C20.75 7.41421 20.4142 7.75 20 7.75H17.675C17.3275 9.46168 15.8142 10.75 14 10.75C12.1858 10.75 10.6725 9.46168 10.325 7.75ZM11.75 7C11.75 5.75736 12.7574 4.75 14 4.75C15.2426 4.75 16.25 5.75736 16.25 7C16.25 8.24264 15.2426 9.25 14 9.25C12.7574 9.25 11.75 8.24264 11.75 7Z" fill="white"/>
</svg>
