<svg width="21" height="20" viewBox="0 0 21 20" fill="none" xmlns="http://www.w3.org/2000/svg">
<path fill-rule="evenodd" clip-rule="evenodd" d="M5.28272 0.010932C5.69691 0.0150029 6.02938 0.354073 6.02531 0.768267L6.01548 1.76822L14.5151 1.85176L14.5249 0.851805C14.529 0.437611 14.868 0.105141 15.2822 0.109212C15.6964 0.113283 16.0289 0.452353 16.0248 0.866547L16.015 1.8665L17.2649 1.87878C18.9217 1.89507 20.2516 3.25135 20.2353 4.90812L20.1174 16.9075C20.1011 18.5643 18.7448 19.8942 17.088 19.8779L3.08871 19.7403C1.43194 19.724 0.102056 18.3678 0.11834 16.711L0.236276 4.71156C0.25256 3.05479 1.60884 1.72491 3.26562 1.74119L4.51555 1.75348L4.52538 0.753525C4.52945 0.339331 4.86852 0.00686113 5.28272 0.010932ZM14.5003 3.35168L14.4856 4.85161C14.4815 5.26581 14.814 5.60488 15.2282 5.60895C15.6424 5.61302 15.9814 5.28055 15.9855 4.86635L16.0003 3.36643L17.2502 3.37871C18.0786 3.38685 18.7435 4.06499 18.7354 4.89338L18.7034 8.14322L1.70426 7.97615L1.7362 4.72631C1.74435 3.89792 2.42249 3.23298 3.25087 3.24112L4.50081 3.2534L4.48607 4.75333C4.482 5.16753 4.81447 5.5066 5.22866 5.51067C5.64286 5.51474 5.98193 5.18227 5.986 4.76807L6.00074 3.26815L14.5003 3.35168ZM1.68952 9.47608L1.61827 16.7257C1.61013 17.5541 2.27507 18.2323 3.10345 18.2404L17.1028 18.378C17.9312 18.3861 18.6093 17.7212 18.6174 16.8928L18.6887 9.64315L1.68952 9.47608Z" fill="#9BAAD3"/>
</svg>
