<svg width="17" height="17" viewBox="0 0 20 20" fill="none" xmlns="http://www.w3.org/2000/svg">
<path fill-rule="evenodd" clip-rule="evenodd" d="M16.7314 15.5672C18.0741 14.0123 18.8943 11.9919 18.9161 9.77672C18.965 4.8064 14.9753 0.737553 10.005 0.688702C5.03467 0.639852 0.965831 4.62949 0.91698 9.59982C0.868129 14.5701 4.85777 18.639 9.82809 18.6878C12.0433 18.7096 14.0794 17.9292 15.6604 16.6173L18.2921 19.3014C18.5821 19.5971 19.057 19.6018 19.3528 19.3118C19.6485 19.0218 19.6532 18.547 19.3632 18.2512L16.7314 15.5672ZM17.4162 9.76198C17.3755 13.9039 13.9848 17.2286 9.84284 17.1879C5.7009 17.1472 2.3762 13.7565 2.41691 9.61456C2.45762 5.47262 5.84832 2.14792 9.99026 2.18863C14.1322 2.22934 17.4569 5.62004 17.4162 9.76198Z" fill="black"/>
</svg>
