<svg width="19" height="17" viewBox="0 0 19 17" fill="none" xmlns="http://www.w3.org/2000/svg">
<path d="M17.3437 1.40626C16.4617 0.542118 15.2431 0.110229 13.6874 0.110229C13.2569 0.110229 12.8175 0.185127 12.3696 0.33485C11.9216 0.484682 11.5049 0.686826 11.1198 0.941134C10.7342 1.19537 10.4029 1.43412 10.1249 1.65702C9.84726 1.87999 9.58329 2.11695 9.33333 2.36771C9.08326 2.11695 8.81937 1.87999 8.54168 1.65702C8.26381 1.43412 7.93231 1.19552 7.54681 0.941134C7.16138 0.686716 6.74469 0.484719 6.2968 0.33485C5.84894 0.185164 5.40963 0.110229 4.9791 0.110229C3.42349 0.110229 2.20482 0.542228 1.32291 1.40626C0.440994 2.27022 0 3.46859 0 5.00147C0 5.46831 0.0817263 5.94926 0.244851 6.44371C0.407975 6.93841 0.593866 7.36001 0.802159 7.70833C1.01041 8.05661 1.24658 8.39625 1.51048 8.72725C1.77437 9.05821 1.96723 9.28631 2.08862 9.41172C2.21011 9.53714 2.30563 9.62782 2.37506 9.6836L8.87497 15.9754C9 16.1008 9.15277 16.1637 9.33329 16.1637C9.51382 16.1637 9.66669 16.1008 9.79166 15.9754L16.2812 9.70429C17.8715 8.10896 18.6666 6.54123 18.6666 5.00132C18.6667 3.46833 18.2257 2.27008 17.3437 1.40626ZM15.375 8.72201L9.33333 14.5643L3.28139 8.71147C1.98274 7.40881 1.33353 6.1719 1.33353 5.00132C1.33353 4.43702 1.40817 3.93877 1.5574 3.50688C1.70673 3.07492 1.89769 2.73165 2.13032 2.47734C2.36299 2.22296 2.64593 2.01584 2.97925 1.85547C3.31276 1.69524 3.63912 1.58721 3.95851 1.53149C4.2779 1.47585 4.61812 1.44799 4.97929 1.44799C5.34034 1.44799 5.72931 1.53673 6.14597 1.71446C6.56255 1.89211 6.94623 2.11508 7.29689 2.3833C7.64762 2.6517 7.94796 2.9025 8.19806 3.13583C8.44802 3.36938 8.65628 3.5835 8.82298 3.77861C8.9479 3.93196 9.11818 4.00861 9.33337 4.00861C9.54863 4.00861 9.71872 3.93196 9.84379 3.77861C10.0105 3.5835 10.2189 3.36927 10.4688 3.13583C10.7188 2.9025 11.0192 2.65181 11.3698 2.3833C11.7205 2.11508 12.1042 1.89211 12.521 1.71446C12.9375 1.53677 13.3266 1.44799 13.6877 1.44799C14.0488 1.44799 14.3889 1.47585 14.7084 1.53149C15.0279 1.58717 15.3543 1.69524 15.6877 1.85547C16.021 2.0158 16.304 2.22307 16.5366 2.47734C16.7692 2.73165 16.9602 3.07492 17.1096 3.50688C17.2586 3.93877 17.3333 4.43702 17.3333 5.00132C17.3332 6.1719 16.6806 7.41225 15.375 8.72201Z" fill="#3246D3"/>
</svg>
